<?xml version="1.0" standalone="no"?>
<!DOCTYPE svg PUBLIC "-//W3C//DTD SVG 20010904//EN"
 "http://www.w3.org/TR/2001/REC-SVG-20010904/DTD/svg10.dtd">
<svg version="1.0" xmlns="http://www.w3.org/2000/svg"
 width="152.000000pt" height="152.000000pt" viewBox="0 0 152.000000 152.000000"
 preserveAspectRatio="xMidYMid meet">
<metadata>
Created by potrace 1.11, written by Peter Selinger 2001-2013
</metadata>
<g transform="translate(0.000000,152.000000) scale(0.100000,-0.100000)"
fill="#000000" stroke="none">
<path d="M0 760 l0 -760 760 0 760 0 0 760 0 760 -760 0 -760 0 0 -760z m612
345 c62 -96 116 -174 119 -175 4 0 17 79 30 175 l23 175 39 0 c37 0 38 -1 33
-27 -3 -16 -17 -113 -31 -218 -37 -272 -32 -255 -65 -255 -24 0 -35 10 -68 63
-103 163 -194 299 -197 295 -2 -2 -13 -73 -25 -158 -28 -213 -24 -200 -65
-200 -19 0 -35 4 -35 9 0 15 60 445 65 469 4 16 12 22 34 22 27 0 39 -15 143
-175z m378 -504 c63 -98 118 -176 121 -172 3 3 16 84 29 179 l23 172 38 0 c36
0 39 -2 34 -22 -5 -23 -65 -457 -65 -471 0 -4 -15 -7 -32 -7 -32 1 -38 8 -148
180 -63 98 -116 178 -117 176 -2 -2 -53 -339 -53 -352 0 -2 -16 -4 -35 -4 -27
0 -35 4 -35 18 0 21 60 452 65 470 3 6 17 12 32 12 25 -1 40 -19 143 -179z"/>
</g>
</svg>
